<svg xmlns="http://www.w3.org/2000/svg">

<symbol id="chevron-left" viewBox="0 0 640 640"><!--!Font Awesome Free v7.2.0 by @fontawesome - https://fontawesome.com License - https://fontawesome.com/license/free Copyright 2026 Fonticons, Inc.--><path d="M169.4 297.4C156.9 309.9 156.9 330.2 169.4 342.7L361.4 534.7C373.9 547.2 394.2 547.2 406.7 534.7C419.2 522.2 419.2 501.9 406.7 489.4L237.3 320L406.6 150.6C419.1 138.1 419.1 117.8 406.6 105.3C394.1 92.8 373.8 92.8 361.3 105.3L169.3 297.3z"/></symbol>

<symbol id="chevron-right" viewBox="0 0 640 640"><!--!Font Awesome Free v7.2.0 by @fontawesome - https://fontawesome.com License - https://fontawesome.com/license/free Copyright 2026 Fonticons, Inc.--><path d="M471.1 297.4C483.6 309.9 483.6 330.2 471.1 342.7L279.1 534.7C266.6 547.2 246.3 547.2 233.8 534.7C221.3 522.2 221.3 501.9 233.8 489.4L403.2 320L233.9 150.6C221.4 138.1 221.4 117.8 233.9 105.3C246.4 92.8 266.7 92.8 279.2 105.3L471.2 297.3z"/></symbol>

<symbol id="arrow" viewBox="0 0 640 640"><!--!Font Awesome Free v7.2.0 by @fontawesome - https://fontawesome.com License - https://fontawesome.com/license/free Copyright 2026 Fonticons, Inc.--><path d="M297.4 566.6C309.9 579.1 330.2 579.1 342.7 566.6L502.7 406.6C515.2 394.1 515.2 373.8 502.7 361.3C490.2 348.8 469.9 348.8 457.4 361.3L352 466.7L352 96C352 78.3 337.7 64 320 64C302.3 64 288 78.3 288 96L288 466.7L182.6 361.3C170.1 348.8 149.8 348.8 137.3 361.3C124.8 373.8 124.8 394.1 137.3 406.6L297.3 566.6z"/>
</symbol>

<symbol id="facebook-icon" viewBox="0 0 640 640"><!--!Font Awesome Free v7.2.0 by @fontawesome - https://fontawesome.com License - https://fontawesome.com/license/free Copyright 2026 Fonticons, Inc.--><path d="M240 363.3L240 576L356 576L356 363.3L442.5 363.3L460.5 265.5L356 265.5L356 230.9C356 179.2 376.3 159.4 428.7 159.4C445 159.4 458.1 159.8 465.7 160.6L465.7 71.9C451.4 68 416.4 64 396.2 64C289.3 64 240 114.5 240 223.4L240 265.5L174 265.5L174 363.3L240 363.3z"/>
</symbol>

<symbol id="instagram-icon" viewBox="0 0 640 640"><!--!Font Awesome Free v7.2.0 by @fontawesome - https://fontawesome.com License - https://fontawesome.com/license/free Copyright 2026 Fonticons, Inc.--><path d="M320.3 205C256.8 204.8 205.2 256.2 205 319.7C204.8 383.2 256.2 434.8 319.7 435C383.2 435.2 434.8 383.8 435 320.3C435.2 256.8 383.8 205.2 320.3 205zM319.7 245.4C360.9 245.2 394.4 278.5 394.6 319.7C394.8 360.9 361.5 394.4 320.3 394.6C279.1 394.8 245.6 361.5 245.4 320.3C245.2 279.1 278.5 245.6 319.7 245.4zM413.1 200.3C413.1 185.5 425.1 173.5 439.9 173.5C454.7 173.5 466.7 185.5 466.7 200.3C466.7 215.1 454.7 227.1 439.9 227.1C425.1 227.1 413.1 215.1 413.1 200.3zM542.8 227.5C541.1 191.6 532.9 159.8 506.6 133.6C480.4 107.4 448.6 99.2 412.7 97.4C375.7 95.3 264.8 95.3 227.8 97.4C192 99.1 160.2 107.3 133.9 133.5C107.6 159.7 99.5 191.5 97.7 227.4C95.6 264.4 95.6 375.3 97.7 412.3C99.4 448.2 107.6 480 133.9 506.2C160.2 532.4 191.9 540.6 227.8 542.4C264.8 544.5 375.7 544.5 412.7 542.4C448.6 540.7 480.4 532.5 506.6 506.2C532.8 480 541 448.2 542.8 412.3C544.9 375.3 544.9 264.5 542.8 227.5zM495 452C487.2 471.6 472.1 486.7 452.4 494.6C422.9 506.3 352.9 503.6 320.3 503.6C287.7 503.6 217.6 506.2 188.2 494.6C168.6 486.8 153.5 471.7 145.6 452C133.9 422.5 136.6 352.5 136.6 319.9C136.6 287.3 134 217.2 145.6 187.8C153.4 168.2 168.5 153.1 188.2 145.2C217.7 133.5 287.7 136.2 320.3 136.2C352.9 136.2 423 133.6 452.4 145.2C472 153 487.1 168.1 495 187.8C506.7 217.3 504 287.3 504 319.9C504 352.5 506.7 422.6 495 452z"/>
</symbol>

<symbol id="twitter-icon" viewBox="0 0 640 640"><!--!Font Awesome Free v7.2.0 by @fontawesome - https://fontawesome.com License - https://fontawesome.com/license/free Copyright 2026 Fonticons, Inc.--><path d="M453.2 112L523.8 112L369.6 288.2L551 528L409 528L297.7 382.6L170.5 528L99.8 528L264.7 339.5L90.8 112L236.4 112L336.9 244.9L453.2 112zM428.4 485.8L467.5 485.8L215.1 152L173.1 152L428.4 485.8z"/>
</symbol>

<symbol id="location-icon" viewBox="0 0 640 640"><!--!Font Awesome Free v7.2.0 by @fontawesome - https://fontawesome.com License - https://fontawesome.com/license/free Copyright 2026 Fonticons, Inc.--><path d="M352 348.4C416.1 333.9 464 276.5 464 208C464 128.5 399.5 64 320 64C240.5 64 176 128.5 176 208C176 276.5 223.9 333.9 288 348.4L288 544C288 561.7 302.3 576 320 576C337.7 576 352 561.7 352 544L352 348.4zM328 160C297.1 160 272 185.1 272 216C272 229.3 261.3 240 248 240C234.7 240 224 229.3 224 216C224 158.6 270.6 112 328 112C341.3 112 352 122.7 352 136C352 149.3 341.3 160 328 160z"/></symbol>

<symbol id="envelop-icon" viewBox="0 0 640 640"><!--!Font Awesome Free v7.2.0 by @fontawesome - https://fontawesome.com License - https://fontawesome.com/license/free Copyright 2026 Fonticons, Inc.--><path d="M112 128C85.5 128 64 149.5 64 176C64 191.1 71.1 205.3 83.2 214.4L291.2 370.4C308.3 383.2 331.7 383.2 348.8 370.4L556.8 214.4C568.9 205.3 576 191.1 576 176C576 149.5 554.5 128 528 128L112 128zM64 260L64 448C64 483.3 92.7 512 128 512L512 512C547.3 512 576 483.3 576 448L576 260L377.6 408.8C343.5 434.4 296.5 434.4 262.4 408.8L64 260z"/></symbol>

<symbol id="youtube-icon" viewBox="0 0 640 640"><!--!Font Awesome Free v7.2.0 by @fontawesome - https://fontawesome.com License - https://fontawesome.com/license/free Copyright 2026 Fonticons, Inc.--><path d="M581.7 188.1C575.5 164.4 556.9 145.8 533.4 139.5C490.9 128 320.1 128 320.1 128C320.1 128 149.3 128 106.7 139.5C83.2 145.8 64.7 164.4 58.4 188.1C47 231 47 320.4 47 320.4C47 320.4 47 409.8 58.4 452.7C64.7 476.3 83.2 494.2 106.7 500.5C149.3 512 320.1 512 320.1 512C320.1 512 490.9 512 533.5 500.5C557 494.2 575.5 476.3 581.8 452.7C593.2 409.8 593.2 320.4 593.2 320.4C593.2 320.4 593.2 231 581.8 188.1zM264.2 401.6L264.2 239.2L406.9 320.4L264.2 401.6z"/></symbol>

</svg>